<svg xmlns="http://www.w3.org/2000/svg" viewBox="0 0 64 64">
  <defs>
    <linearGradient id="bg" x1="0" y1="0" x2="1" y2="1">
      <stop offset="0%" stop-color="#fb923c" />
      <stop offset="50%" stop-color="#f43f5e" />
      <stop offset="100%" stop-color="#a855f7" />
    </linearGradient>
    <linearGradient id="halo" x1="0" y1="0" x2="1" y2="0">
      <stop offset="0%" stop-color="#fde047" />
      <stop offset="100%" stop-color="#fbbf24" />
    </linearGradient>
  </defs>
  <circle cx="32" cy="32" r="32" fill="url(#bg)" />
  <ellipse cx="32" cy="11" rx="13" ry="2.5" fill="none" stroke="url(#halo)" stroke-width="2" />
  <path d="M10 36 Q10 18 22 14 Q32 10 42 14 Q54 18 54 36 L54 64 L10 64 Z" fill="#0f172a" />
  <ellipse cx="32" cy="32" rx="15.5" ry="14" fill="#ffffff" />
  <ellipse cx="32" cy="32" rx="12.5" ry="11.5" fill="#fde7c8" />
  <path d="M22.5 26 L29 27.5" stroke="#0f172a" stroke-width="2.5" stroke-linecap="round" />
  <path d="M35 27.5 L41.5 26" stroke="#0f172a" stroke-width="2.5" stroke-linecap="round" />
  <ellipse cx="27" cy="32" rx="1.5" ry="2" fill="#0f172a" />
  <ellipse cx="37" cy="32" rx="1.5" ry="2" fill="#0f172a" />
  <path d="M27 38 Q32 41 38 37.5" stroke="#0f172a" stroke-width="1.8" fill="none" stroke-linecap="round" />
  <ellipse cx="22.5" cy="36" rx="2" ry="1.3" fill="#fb7185" opacity="0.45" />
  <ellipse cx="41.5" cy="36" rx="2" ry="1.3" fill="#fb7185" opacity="0.45" />
  <g transform="translate(46, 46)">
    <rect x="-6" y="-1.5" width="12" height="3" fill="#1e293b" rx="0.5" />
    <rect x="-8" y="-4" width="3" height="8" fill="#1e293b" rx="0.5" />
    <rect x="5" y="-4" width="3" height="8" fill="#1e293b" rx="0.5" />
  </g>
</svg>
